<?xml version="1.0" encoding="UTF-8"?>
<svg width="662px" height="455px" viewBox="0 0 662 455" version="1.1" xmlns="http://www.w3.org/2000/svg" xmlns:xlink="http://www.w3.org/1999/xlink">
    <!-- Generator: Sketch 53.2 (72643) - https://sketchapp.com -->
    <title>Hat</title>
    <desc>Created with Sketch.</desc>
    <g id="Hat" stroke="none" stroke-width="1" fill="none" fill-rule="evenodd">
        <g id="Group" transform="translate(122.000000, 101.000000) rotate(330.000000) translate(-122.000000, -101.000000) translate(23.000000, 46.000000)" stroke="#000000" stroke-linecap="square">
            <path d="M109.164043,81.9895506 C128.327205,98.529083 143.035325,107.529083 153.288404,108.989551 C159.654024,109.896281 175.584799,110.272673 184.806997,106.263216 C188.561636,104.630843 192.013984,100.622955 195.164043,94.2395506" id="Line-17"></path>
            <path d="M151.164043,66.5201844 C163.972433,58.2135183 174.137665,56.3699737 181.659739,60.9895506 C186.421065,63.9136529 194.016104,70.5076161 196.356905,78.4250354 C196.970776,80.5013632 198.075017,84.6866872 197.489929,88.5843403 C197.305044,89.8159786 196.616596,91.5340884 195.424586,93.7386698" id="Line-16"></path>
            <path d="M73.1640426,65.9895506 C71.9414235,65.2162368 77.9414235,64.8295799 91.1640426,64.8295799 C97.9916379,64.8295799 107.392227,67.7884443 117.833859,67.9946289 C121.560571,68.0682181 126.910214,68.4418691 133.636031,67.9946289 C136.996909,67.7711439 142.83958,67.1027844 151.164043,65.9895506" id="Line-15"></path>
            <path d="M52.6640426,62 C56.5366603,61.460311 62.994469,62.7901611 72.0374689,65.9895506 C78.4454023,68.2566605 87.023963,71.0855365 96.7785776,75.4956552 C99.4527685,76.7046726 103.581257,78.8693044 109.164043,81.9895506" id="Line-14"></path>
            <path d="M-1.52766688e-13,73.9895506 C7.40437573,66.7933131 14.3053295,62.4599798 20.7028613,60.9895506 C25.5868016,59.8670101 31.4284984,58.6551302 41.0791523,59.6390971 C43.0730542,59.8423925 46.7680176,60.6293601 52.1640426,62" id="Line-13"></path>
            <path d="M28.1640426,79.4895506 C49.8542191,84.0957881 67.9889091,88.1141073 82.5681125,91.5445081 C91.3495034,93.6107177 102.512048,98.0429729 116.338276,101.476632 C122.424014,102.987988 132.69927,104.992294 147.164043,107.489551" id="Line-11"></path>
            <path d="M73.0625545,89.5097225 C61.312018,92.0537617 52.5936593,93.3896601 46.9074783,93.5174178 C33.6856707,93.8144867 20.2706554,91.3665393 13.9881444,89.9895506 C3.65284092,87.7242786 -0.955193007,82.3909452 0.164042617,73.9895506" id="Line-12"></path>
            <path d="M99,4.43992244 C104.150286,2.926475 107.723224,2.26801107 109.718813,2.46453065 C114.486792,2.93406681 118.171945,5.28600376 122.164043,7.48955056 C127.392055,10.3752943 132.657318,13.6406949 136.639918,18.4822866 C145.572855,29.3419358 150.41423,45.1776905 151.164043,65.9895506" id="Line-9"></path>
            <path d="M52.1640426,60.9895506 L53.1640426,30.9895506" id="Line"></path>
            <path d="M53.1640426,30.9895506 C53.5615533,27.2733211 54.0471376,24.4399878 54.6207956,22.4895506 C55.1944536,20.5391134 56.375536,17.70578 58.1640426,13.9895506" id="Line-2"></path>
            <path d="M58.1640426,13.9895506 C60.8686583,10.1190056 63.1055893,7.22539124 64.8748359,5.30870752 C66.6440824,3.3920238 68.4071513,1.95230482 70.1640426,0.989550564" id="Line-3"></path>
            <path d="M70.1640426,0.989550564 C72.6844881,0.336816479 75.2963218,0.0104494359 77.9995438,0.0104494359 C80.7027657,0.0104494359 84.7575987,0.336816479 90.1640426,0.989550564" id="Line-4"></path>
            <path d="M90.1640426,0.989452888 C93.6231154,2.20893498 96.9564487,3.70076436 100.164043,5.46494101 C103.371637,7.22911767 106.70497,9.40398752 110.164043,11.9895506" id="Line-5"></path>
            <path d="M110.164043,11.9895506 C115.127261,15.3854872 118.752907,18.170291 121.040982,20.3439621 C123.329057,22.5176333 126.370077,26.0661627 130.164043,30.9895506" id="Line-6"></path>
            <path d="M67.1640426,26.9895506 C71.3418112,30.6045164 74.6911763,33.0995343 77.212138,34.4746043 C79.7330997,35.8496743 83.7170679,37.3546564 89.1640426,38.9895506" id="Line-7"></path>
            <path d="M105.164043,46.9895506 C110.159191,44.7876626 113.645773,42.8140656 115.623786,41.0687596 C117.6018,39.3234536 119.781885,36.2970506 122.164043,31.9895506" id="Line-8"></path>
            <path d="M151.161009,65.9895506 C152.293607,73.0986102 152.293607,77.5986102 151.161009,79.4895506 C149.998716,81.4300674 147.346215,81.9895506 144.913512,81.9895506 C136.390737,81.9895506 124.423051,81.9895506 109.010457,81.9895506" id="Line-10"></path>
        </g>
        <text id="Ho-wdy!" font-family="Anton-Regular, Anton" font-size="100" font-weight="normal" line-spacing="100" fill="#4A4A4A">
            <tspan x="114" y="236">Ho</tspan>
            <tspan x="114" y="336">wdy</tspan>
            <tspan x="255.176562" y="368.929993" font-family="Georgia">!</tspan>
        </text>
    </g>
</svg>