<?xml version="1.0" encoding="UTF-8"?>
<svg width="1286px" height="1231px" viewBox="0 0 1286 1231" version="1.1" xmlns="http://www.w3.org/2000/svg" xmlns:xlink="http://www.w3.org/1999/xlink">
    <!-- Generator: Sketch 53.2 (72643) - https://sketchapp.com -->
    <title>Texas</title>
    <desc>Created with Sketch.</desc>
    <g id="Texas" stroke="none" stroke-width="1" fill="none" fill-rule="evenodd" stroke-linecap="square">
        <g stroke="#000000" stroke-width="5">
            <path d="M340.5,0.5 L635.5,0.5" id="Line"></path>
            <path d="M635.5,0.5 L635.5,218.5" id="Line-2"></path>
            <path d="M635.5,218.5 L675.5,246.5" id="Line-3"></path>
            <path d="M676,247 L713.5,241.5" id="Line-4"></path>
            <path d="M714,241 L738.5,273.5" id="Line-5"></path>
            <path d="M739,274 L798.5,281.5" id="Line-6"></path>
            <path d="M799,282 L816.5,274" id="Line-7"></path>
            <path d="M817,274 L844.5,299.5" id="Line-8"></path>
            <path d="M845,300 L870.5,287" id="Line-9"></path>
            <path d="M871,287 L951.5,293.5" id="Line-10"></path>
            <path d="M952,294 L981.5,310.5" id="Line-11"></path>
            <path d="M982,311 L1082.5,282" id="Line-12"></path>
            <path d="M1083,282 L1169.5,321.5" id="Line-13"></path>
            <path d="M1170,322 L1208.5,322" id="Line-14"></path>
            <path d="M1208.5,322 L1224.5,500.5" id="Line-15"></path>
            <path d="M1225,501 L1249.5,535.5" id="Line-16"></path>
            <path d="M1250,536 L1250,552.5" id="Line-17"></path>
            <path d="M1250,552.5 L1285.5,601.5" id="Line-18"></path>
            <path d="M1286,602 L1268,678.5" id="Line-19"></path>
            <path d="M1268,679 L1277,716.5" id="Line-20"></path>
            <path d="M1277,717 L1259.5,747.5" id="Line-21"></path>
            <path d="M1259,748 L1277,773.5" id="Line-22"></path>
            <path d="M1277,774 L1237.5,781.5" id="Line-23"></path>
            <path d="M1237.5,782 L1176.5,804.5" id="Line-24"></path>
            <path d="M1176,805 L1126.5,858.5" id="Line-25"></path>
            <path d="M1126,859 L971.5,956.5" id="Line-26"></path>
            <path d="M971,957 L930.5,1063.5" id="Line-27"></path>
            <path d="M930,1064 L963.5,1202.5" id="Line-28"></path>
            <path d="M964,1203 L934.5,1230.5" id="Line-29"></path>
            <path d="M934,1231 L811.5,1190.5" id="Line-30"></path>
            <path d="M811,1190 L744.5,1177.5" id="Line-31"></path>
            <path d="M744,1177 L704.5,1100.5" id="Line-32"></path>
            <path d="M704,1100 L700.5,1030.5" id="Line-33"></path>
            <path d="M700,1030 L663.5,1019.5" id="Line-34"></path>
            <path d="M663,1019 L580.5,863.5" id="Line-35"></path>
            <path d="M580,863 L529.5,830.5" id="Line-36"></path>
            <path d="M529,830 L508.5,789.5" id="Line-37"></path>
            <path d="M508,789 L403.5,789" id="Line-38"></path>
            <path d="M403.5,789 L360.5,874.5" id="Line-39"></path>
            <path d="M360,875 L309.5,875" id="Line-40"></path>
            <path d="M309.5,875 L195.5,795.5" id="Line-41"></path>
            <path d="M195,795 L164.5,698.5" id="Line-42"></path>
            <path d="M164,698 L56.5,600.5" id="Line-43"></path>
            <path d="M56,600 L40.5,566.5" id="Line-44"></path>
            <path d="M40,566 L1.5,546.5" id="Line-45"></path>
            <path d="M1,546 L1,505.5" id="Line-46"></path>
            <path d="M1,505.5 L337.5,508.5" id="Line-47"></path>
            <path d="M338,509 L340.5,0.5" id="Line-48"></path>
        </g>
    </g>
</svg>